# xmcd
# Track frame offsets:
# 150
# 25476
# 49161
# 73048
# 108207
# 131238
# 145949
# 170432
# 198963
# 225929
# 245865
#
# Disc length: 3748 seconds
# Revision: 0
# Processed by: cddbd v1.5.2PL0 Copyright (c) Steve Scherf et al.
# Submitted via: VisiTrax 2.10.3.257 - For more info visit www.synapsa.com
#
DISCID=9d0ea20b
DTITLE=Tommy Castro - Live At The Fillmore
DYEAR=1900
DGENRE=
TTITLE0=Right As Rain
TTITLE1=Like An Angel
TTITLE2=Nasty Habits
TTITLE3=My Time After Awhile
TTITLE4=Lucky In Love
TTITLE5=I Got To Change
TTITLE6=Can't You See What Your Doing To Me?
TTITLE7=Just A Man
TTITLE8=Keep A Good Man Down
TTITLE9=The Girl Can' Help It
TTITLE10=Sex Machine
EXTD=
EXTT0=
EXTT1=
EXTT2=
EXTT3=
EXTT4=
EXTT5=
EXTT6=
EXTT7=
EXTT8=
EXTT9=
EXTT10=
PLAYORDER=
